<?xml version="1.0" standalone="no"?>
<!DOCTYPE svg PUBLIC "-//W3C//DTD SVG 20010904//EN"
 "http://www.w3.org/TR/2001/REC-SVG-20010904/DTD/svg10.dtd">
<svg version="1.0" xmlns="http://www.w3.org/2000/svg"
 width="780.000000pt" height="600.000000pt" viewBox="0 0 780.000000 600.000000"
 preserveAspectRatio="xMidYMid meet">

<g transform="translate(0.000000,600.000000) scale(0.100000,-0.100000)"
fill="#000000" stroke="none">
<path d="M3840 5599 c0 -5 -33 -8 -72 -8 -40 0 -95 -3 -123 -6 -27 -4 -61 -7
-75 -6 -14 0 -36 -4 -50 -9 -14 -5 -54 -11 -89 -14 -36 -3 -69 -10 -75 -16 -5
-5 -32 -10 -58 -10 -26 0 -48 -4 -48 -8 0 -5 -6 -9 -12 -9 -77 -5 -240 -57
-376 -119 -29 -13 -55 -24 -58 -24 -7 0 -131 -62 -200 -101 -48 -26 -164 -101
-244 -156 -153 -106 -400 -336 -513 -478 -26 -33 -57 -71 -69 -85 -23 -28
-125 -183 -180 -275 -40 -67 -158 -307 -158 -321 0 -5 -6 -20 -13 -34 -7 -14
-21 -47 -31 -75 -10 -27 -22 -59 -26 -70 -5 -11 -14 -40 -20 -64 -6 -23 -14
-41 -16 -38 -17 17 96 318 187 497 67 132 235 403 268 430 3 3 18 21 32 40 15
19 37 46 49 60 76 88 121 138 141 160 34 35 208 190 247 220 19 14 51 39 72
56 143 115 442 286 624 354 47 18 85 35 83 37 -15 15 -359 -143 -479 -220 -31
-21 -60 -37 -63 -37 -11 0 -175 -119 -280 -203 -118 -95 -325 -302 -410 -410
-33 -42 -65 -75 -71 -72 -7 2 -10 -4 -7 -14 3 -11 -2 -21 -12 -25 -11 -4 -14
-2 -9 7 4 6 -7 -3 -25 -21 -17 -18 -31 -37 -31 -43 0 -5 -7 -9 -15 -9 -8 0
-15 -7 -15 -16 0 -9 -6 -14 -12 -11 -7 2 -28 -18 -46 -45 -18 -26 -35 -48 -38
-48 -4 0 -3 6 2 13 5 7 1 4 -10 -8 -10 -11 -22 -19 -27 -18 -5 2 -5 -5 -2 -14
4 -11 3 -14 -5 -9 -8 5 -10 2 -6 -8 5 -14 0 -18 -22 -15 -4 0 -15 -18 -25 -41
-20 -44 -43 -72 -52 -63 -3 3 -9 -6 -12 -20 -4 -14 -15 -33 -25 -42 -10 -9
-16 -23 -13 -31 3 -9 -1 -12 -15 -9 -15 2 -19 -2 -16 -20 1 -13 -4 -26 -12
-29 -7 -3 -11 -12 -8 -19 3 -8 -6 -27 -20 -42 -14 -15 -28 -36 -31 -46 -4 -11
-11 -16 -17 -13 -6 4 -5 -3 2 -16 10 -18 9 -21 -1 -15 -9 6 -11 2 -7 -13 4
-12 2 -20 -2 -17 -14 9 -35 -35 -45 -90 -2 -11 -4 -22 -5 -25 -1 -3 -2 -9 -1
-13 1 -5 -3 -6 -9 -2 -8 5 -7 12 2 23 11 15 11 15 -3 5 -9 -7 -19 -10 -23 -6
-4 4 -4 -1 0 -11 6 -15 4 -17 -6 -11 -9 5 -11 4 -6 -4 4 -6 12 -9 18 -5 5 3 3
-8 -6 -24 -9 -17 -17 -40 -19 -52 -2 -12 -10 -29 -18 -38 -8 -9 -13 -25 -11
-36 3 -13 0 -16 -10 -10 -9 6 -9 2 2 -11 8 -10 10 -16 4 -12 -12 7 -29 -56
-20 -72 3 -4 -1 -17 -9 -27 -8 -10 -15 -27 -15 -37 0 -10 -4 -15 -10 -12 -6 4
-7 -1 -3 -11 5 -12 3 -15 -6 -9 -10 6 -11 3 -1 -16 10 -18 10 -24 -2 -33 -8
-6 -13 -17 -10 -25 3 -9 0 -11 -8 -6 -9 5 -11 4 -6 -4 5 -7 9 -23 11 -37 2
-19 -1 -22 -10 -14 -10 8 -15 8 -21 -1 -4 -7 -3 -9 3 -6 6 4 14 0 17 -9 3 -8
2 -13 -3 -10 -5 3 -12 -1 -15 -10 -4 -10 -2 -13 6 -8 8 5 9 2 4 -12 -5 -10
-10 -31 -12 -47 -2 -15 -10 -40 -17 -55 -8 -16 -11 -37 -7 -52 4 -15 1 -36 -7
-52 -18 -36 -17 -46 3 -22 9 10 6 3 -5 -17 -20 -35 -30 -69 -12 -40 15 24 20
-3 7 -41 -9 -24 -10 -42 -3 -53 7 -13 6 -16 -2 -11 -15 10 -14 -7 2 -23 10
-11 9 -13 0 -7 -16 9 -16 1 -2 -26 6 -11 7 -18 2 -15 -5 3 -10 -11 -11 -31 -1
-20 -4 -51 -5 -69 -2 -18 1 -29 6 -26 5 3 7 0 5 -8 -3 -8 -11 -13 -17 -11 -7
1 -10 -2 -6 -8 3 -6 11 -7 17 -4 7 4 8 2 4 -5 -4 -6 -2 -19 5 -27 6 -8 9 -17
5 -21 -3 -3 -6 -1 -6 5 0 7 -4 12 -8 12 -10 0 -9 -30 2 -48 4 -6 4 -18 -1 -25
-4 -6 -8 -28 -8 -47 0 -22 -4 -34 -12 -33 -7 2 -10 -4 -7 -12 4 -8 10 -15 15
-15 9 0 6 -66 -6 -95 l-8 -20 17 20 c16 19 16 19 6 -8 -12 -34 -12 -40 -2 -33
4 2 8 -4 9 -14 1 -11 -2 -22 -8 -25 -5 -3 -6 2 -3 12 5 17 5 17 -6 1 -8 -13
-8 -23 0 -37 13 -25 13 -34 -1 -25 -7 4 -10 1 -7 -7 3 -8 10 -13 16 -12 6 2 9
-4 6 -12 -4 -8 -9 -13 -13 -10 -10 5 -7 -27 3 -43 5 -8 1 -19 -10 -28 -11 -8
-14 -14 -9 -13 24 3 27 -2 9 -16 -13 -11 -14 -13 -3 -9 10 3 19 -1 22 -10 4
-11 1 -13 -10 -9 -15 6 -15 5 0 -17 12 -17 13 -28 6 -42 -5 -10 -7 -24 -3 -30
4 -6 3 -8 -4 -5 -6 5 -8 0 -5 -13 3 -11 0 -26 -6 -33 -8 -10 -7 -14 4 -14 8 0
11 5 8 10 -3 6 -1 7 6 3 12 -8 8 -19 -18 -50 -15 -18 -15 -19 1 -13 21 7 31
-28 13 -46 -10 -11 -10 -16 1 -31 11 -16 11 -22 -1 -39 -12 -17 -12 -23 3 -46
16 -25 16 -25 -1 -12 -15 12 -17 12 -11 -4 6 -14 4 -16 -6 -10 -9 5 -11 4 -6
-4 4 -6 10 -9 14 -7 4 2 7 -9 7 -25 0 -16 -3 -29 -7 -29 -5 0 -8 -5 -8 -11 0
-5 4 -8 8 -5 4 2 8 -4 8 -14 0 -10 -4 -16 -8 -14 -12 8 -9 -11 3 -23 9 -9 8
-18 -4 -37 -12 -18 -14 -27 -5 -32 7 -5 8 -3 3 7 -8 12 -6 12 8 0 18 -14 23
-26 8 -17 -14 9 -19 -17 -8 -39 9 -18 9 -19 -8 -5 -17 14 -18 14 -6 -8 7 -13
17 -20 24 -15 8 4 7 1 -1 -10 -8 -9 -10 -22 -6 -29 5 -8 1 -8 -11 2 -17 14
-18 14 -7 -7 7 -12 9 -29 6 -37 -3 -9 -2 -16 3 -16 5 0 9 -9 9 -19 0 -11 -4
-17 -8 -15 -9 6 -10 -4 -10 -55 0 -18 5 -38 11 -44 14 -14 14 -30 1 -22 -5 3
-10 -1 -10 -9 0 -9 5 -16 11 -16 5 0 7 -5 4 -10 -4 -6 -11 -8 -16 -4 -6 3 -3
-11 5 -31 12 -27 12 -34 3 -27 -10 8 -13 6 -13 -8 0 -10 3 -17 7 -14 4 2 10
-3 13 -12 3 -8 2 -13 -3 -10 -15 10 -19 -43 -4 -64 11 -15 11 -20 2 -20 -10 0
-10 -3 -1 -12 15 -15 16 -32 1 -22 -8 4 -8 0 0 -15 8 -14 8 -21 1 -21 -7 0 -7
-7 1 -21 6 -12 7 -19 1 -15 -6 3 -10 -8 -10 -28 0 -19 -3 -40 -7 -45 -3 -6 1
-14 9 -17 11 -4 13 -11 7 -23 -6 -10 -5 -23 0 -34 7 -11 6 -17 -1 -17 -6 0 -8
-10 -4 -26 5 -20 4 -25 -5 -20 -8 5 -7 -4 3 -28 8 -20 11 -34 7 -31 -15 8 -21
-23 -8 -37 15 -16 17 -120 2 -108 -12 10 -12 -121 0 -140 5 -8 4 -11 -2 -7 -7
4 -9 -10 -8 -41 2 -26 -2 -56 -8 -67 -9 -18 -9 -19 8 -5 17 14 17 14 7 -7
l-12 -22 206 -1 205 -1 -2 1673 c-2 1670 -2 1672 19 1688 14 12 22 34 27 76
15 128 82 362 138 484 14 30 36 81 50 112 43 97 212 378 279 463 4 5 36 46 70
90 111 141 242 269 396 388 28 21 58 46 69 56 21 19 148 100 242 154 85 48
351 177 366 177 4 0 38 14 77 31 65 28 129 49 218 69 19 5 64 16 100 25 190
47 469 88 585 85 162 -4 403 -26 441 -40 15 -6 26 -5 30 2 10 16 -17 28 -69
28 -27 0 -46 3 -44 8 3 4 -11 7 -31 8 -21 0 -53 4 -72 7 -34 7 -124 14 -262
20 -38 2 -68 0 -68 -4z m-2899 -2542 c-10 -9 -11 -8 -5 6 3 10 9 15 12 12 3
-3 0 -11 -7 -18z m-41 -1957 c0 -5 -5 -10 -11 -10 -5 0 -7 5 -4 10 3 6 8 10
11 10 2 0 4 -4 4 -10z m4 -245 c-4 -8 -11 -12 -16 -9 -6 4 -5 10 3 15 19 12
19 11 13 -6z m-13 -228 c-10 -9 -11 -8 -5 6 3 10 9 15 12 12 3 -3 0 -11 -7
-18z m19 -213 c0 -8 -19 -13 -24 -6 -3 5 1 9 9 9 8 0 15 -2 15 -3z"/>
<path d="M3160 5570 c-8 -5 -10 -10 -5 -10 6 0 17 5 25 10 8 5 11 10 5 10 -5
0 -17 -5 -25 -10z"/>
<path d="M3060 5540 c-18 -12 -2 -12 25 0 13 6 15 9 5 9 -8 0 -22 -4 -30 -9z"/>
<path d="M3328 5543 c7 -3 16 -2 19 1 4 3 -2 6 -13 5 -11 0 -14 -3 -6 -6z"/>
<path d="M4400 5538 c0 -18 65 -42 83 -31 6 3 7 1 3 -5 -4 -6 1 -11 11 -10 74
1 298 -68 448 -137 17 -8 37 -16 45 -17 8 -2 17 -5 20 -8 3 -3 41 -24 85 -46
201 -101 513 -307 557 -369 4 -5 8 -6 8 -2 0 4 7 2 15 -5 9 -7 21 -17 28 -23
7 -5 25 -21 40 -34 15 -14 27 -21 27 -17 0 11 -73 79 -152 143 -40 32 -79 64
-86 71 -7 6 -20 12 -28 12 -8 0 -14 4 -14 9 0 19 -250 175 -375 236 -44 21
-87 42 -95 47 -8 4 -22 11 -30 14 -8 3 -33 14 -55 24 -22 10 -69 28 -105 40
-35 12 -69 24 -75 28 -16 11 -228 59 -300 69 -22 3 -43 11 -47 17 -5 7 -8 5
-8 -6z"/>
<path d="M3738 5433 c7 -3 16 -2 19 1 4 3 -2 6 -13 5 -11 0 -14 -3 -6 -6z"/>
<path d="M4056 5432 c-3 -5 8 -6 25 -4 16 2 29 6 29 8 0 8 -49 4 -54 -4z"/>
<path d="M4120 5431 c0 -9 38 -19 95 -25 17 -1 48 -6 69 -11 28 -6 37 -5 32 4
-4 6 -15 11 -25 11 -10 0 -35 7 -54 15 -40 16 -117 20 -117 6z"/>
<path d="M4710 5299 c0 -5 5 -7 10 -4 6 3 10 8 10 11 0 2 -4 4 -10 4 -5 0 -10
-5 -10 -11z"/>
<path d="M2345 4870 c-3 -6 1 -7 9 -4 18 7 21 14 7 14 -6 0 -13 -4 -16 -10z"/>
<path d="M5780 4817 c0 -2 14 -16 31 -33 26 -24 30 -25 20 -7 -10 19 -51 51
-51 40z"/>
<path d="M3675 4753 c-60 -6 -141 -19 -180 -28 -38 -9 -88 -20 -110 -25 -22
-5 -59 -16 -82 -24 -24 -8 -43 -13 -43 -10 0 2 -9 0 -21 -6 -11 -6 -29 -13
-39 -15 -25 -5 -175 -72 -263 -118 -87 -46 -146 -83 -207 -129 -27 -21 -52
-38 -55 -38 -14 0 -195 -178 -250 -245 -47 -56 -166 -238 -160 -243 6 -6 44
40 45 53 0 6 24 35 53 66 28 31 68 75 87 98 19 22 41 41 48 41 7 0 10 5 7 10
-3 6 1 10 9 10 9 0 16 5 16 11 0 6 9 8 21 4 15 -5 19 -4 15 4 -4 6 0 11 11 11
10 0 45 26 78 58 153 149 333 266 590 383 35 16 138 46 215 63 41 10 93 21
115 26 272 64 679 23 966 -95 62 -26 120 -48 127 -48 6 0 12 -5 12 -10 0 -5 7
-7 15 -3 8 3 15 2 15 -2 0 -8 123 -92 136 -92 4 0 22 -11 40 -25 18 -14 35
-25 38 -25 3 0 23 -16 43 -35 21 -19 49 -40 63 -47 14 -6 39 -28 55 -49 17
-21 33 -38 38 -39 4 0 22 -16 41 -36 22 -23 39 -33 47 -29 8 5 10 4 5 -4 -4
-6 0 -14 11 -18 10 -4 24 -13 31 -20 7 -7 20 -13 28 -13 7 0 16 -11 20 -25 4
-14 9 -24 12 -21 3 3 19 -9 36 -27 17 -17 35 -31 40 -29 5 2 6 -7 3 -18 -4
-15 -2 -20 7 -17 7 3 21 -8 32 -24 10 -16 22 -29 27 -29 4 0 7 -6 7 -14 0 -8
7 -16 15 -20 8 -3 15 -10 15 -16 0 -11 12 -28 42 -58 9 -9 18 -23 20 -31 5
-22 30 -51 40 -45 4 3 5 -1 2 -9 -3 -8 0 -18 7 -23 8 -4 10 -3 5 4 -4 7 -5 12
-2 12 10 0 96 -135 96 -150 0 -9 4 -20 9 -25 20 -20 92 -260 120 -400 25 -122
51 -367 51 -482 0 -214 -64 -530 -150 -738 -7 -16 -19 -46 -27 -65 -26 -63
-112 -228 -154 -297 -75 -123 -137 -201 -244 -308 -287 -289 -624 -474 -1000
-550 -159 -31 -229 -38 -400 -38 -364 1 -617 70 -950 259 -27 15 -52 30 -55
33 -3 4 -31 23 -62 44 -58 38 -205 163 -267 227 -148 155 -263 305 -356 465
-38 64 -125 243 -125 256 0 5 -4 17 -9 27 -5 9 -21 51 -35 92 -90 273 -117
488 -98 803 14 223 39 367 97 542 12 39 28 95 35 125 7 30 21 79 31 109 11 30
18 56 16 58 -10 9 -26 -28 -47 -102 -12 -44 -28 -98 -35 -120 -29 -86 -54
-150 -55 -140 0 6 -4 4 -9 -4 -7 -11 -33 -14 -109 -12 -55 1 -103 -2 -106 -7
-2 -4 -24 -9 -48 -11 -24 -1 -44 -5 -46 -10 -4 -12 -98 4 -126 22 -14 10 -27
24 -27 32 -3 28 -4 33 -12 41 -16 16 -7 184 14 257 11 39 22 82 25 95 7 35
-23 27 -41 -10 -8 -18 -19 -40 -24 -48 -52 -83 -87 -243 -122 -563 -7 -59 -14
-105 -16 -103 -3 2 -11 28 -18 58 l-14 53 4 -75 c3 -41 10 -163 16 -270 8
-134 10 -599 8 -1497 l-4 -1303 2575 0 2575 0 -2 1027 c-5 1798 -7 1967 -31
2133 -41 283 -56 340 -117 450 -12 21 -15 22 -21 7 -3 -10 -3 -48 2 -85 12
-105 8 -282 -7 -282 -4 0 -9 -8 -12 -19 -5 -20 -54 -34 -60 -17 -3 6 -8 4 -12
-6 -5 -13 -12 -15 -36 -6 -16 5 -26 14 -23 19 3 5 0 9 -5 9 -6 0 -11 -4 -11
-8 0 -12 -153 -2 -161 10 -3 5 -32 8 -64 6 -52 -3 -62 0 -85 23 -16 16 -33 52
-43 90 -27 97 -105 302 -154 403 -105 213 -242 387 -418 530 -179 146 -309
223 -570 341 -64 28 -214 75 -290 91 -38 7 -81 16 -95 19 -131 27 -438 37
-605 18z"/>
<path d="M5850 4746 c0 -2 7 -9 15 -16 9 -7 15 -8 15 -2 0 5 -7 12 -15 16 -8
3 -15 4 -15 2z"/>
<path d="M3730 4670 c-138 -11 -260 -36 -385 -76 -119 -38 -137 -46 -264 -107
-231 -110 -513 -357 -679 -594 -34 -49 -65 -92 -70 -98 -24 -31 -124 -220
-160 -305 -60 -141 -82 -213 -132 -436 -20 -85 -30 -349 -20 -490 11 -157 19
-202 62 -364 102 -378 350 -752 653 -985 21 -16 52 -41 69 -55 124 -103 425
-245 636 -301 181 -47 422 -66 635 -50 223 17 371 55 618 157 222 91 436 239
627 433 123 125 197 226 272 371 162 312 219 543 220 890 1 347 -52 585 -200
899 -42 92 -181 313 -229 366 -10 11 -33 38 -52 60 -136 161 -290 295 -471
412 -54 35 -270 143 -345 173 -201 80 -526 122 -785 100z m641 -1139 c241 -24
457 -150 565 -328 64 -106 79 -171 78 -328 -1 -124 -4 -149 -28 -219 -28 -82
-94 -193 -140 -236 -15 -14 -57 -43 -94 -66 l-67 -41 2 -51 c5 -119 126 -279
257 -342 35 -16 75 -30 88 -30 13 0 32 -6 41 -12 14 -11 14 -17 2 -44 -18 -43
-82 -64 -194 -64 -98 0 -153 15 -259 67 -70 35 -202 146 -189 160 4 3 57 -25
118 -62 172 -103 219 -118 366 -119 156 -1 177 12 66 41 -49 12 -97 33 -195
84 -10 5 -23 9 -30 9 -7 1 -31 9 -53 20 -22 11 -47 19 -57 20 -9 0 -33 9 -55
20 -21 10 -62 26 -92 35 -54 15 -121 53 -121 68 0 4 -6 7 -13 7 -8 0 -33 23
-57 51 -63 75 -79 79 -295 79 l-185 0 0 -170 c0 -168 0 -171 25 -195 13 -14
31 -25 39 -25 20 0 29 -16 21 -40 -6 -19 -16 -20 -285 -20 l-278 0 -7 31 c-4
17 -5 31 -3 33 1 1 20 9 41 19 20 9 46 31 57 49 19 32 20 52 20 623 0 377 -4
604 -11 630 -27 105 -47 115 -221 115 l-133 0 -24 36 c-57 84 -163 139 -290
150 -77 7 -96 15 -89 35 5 12 143 15 794 17 460 2 829 -1 885 -7z m-1159
-2449 c18 -9 60 -26 93 -36 33 -10 77 -26 98 -37 20 -10 81 -25 135 -34 53 -8
124 -21 157 -27 60 -11 439 -14 522 -4 23 3 45 1 48 -4 4 -6 -7 -10 -24 -10
-17 0 -31 -4 -31 -10 0 -5 -16 -10 -36 -10 -19 0 -45 -5 -56 -11 -13 -7 -89
-11 -207 -10 -179 0 -254 10 -456 55 -29 7 -147 48 -196 68 -73 30 -124 68
-107 80 18 11 23 10 60 -10z"/>
<path d="M3842 2913 l3 -358 200 2 c213 2 287 12 375 50 62 27 100 60 139 118
24 37 26 48 26 150 -1 101 -3 115 -31 175 -35 74 -69 111 -146 157 -80 49
-168 63 -384 63 l-184 0 2 -357z"/>
<path d="M5925 4660 c3 -5 11 -10 16 -10 6 0 7 5 4 10 -3 6 -11 10 -16 10 -6
0 -7 -4 -4 -10z"/>
<path d="M5994 4564 c11 -19 27 -36 35 -39 11 -4 10 -1 -2 13 -9 10 -14 22
-11 25 4 4 -1 9 -10 13 -9 3 -14 9 -11 13 2 4 -2 8 -9 8 -10 0 -8 -9 8 -33z"/>
<path d="M6053 4505 c0 -8 4 -15 9 -15 4 0 8 4 8 9 0 6 -4 12 -8 15 -5 3 -9
-1 -9 -9z"/>
<path d="M6100 4432 c0 -12 22 -32 35 -32 5 0 2 5 -8 11 -9 6 -15 14 -12 20 4
5 1 9 -4 9 -6 0 -11 -4 -11 -8z"/>
<path d="M6130 4384 c0 -6 9 -19 20 -29 11 -10 20 -22 20 -26 0 -5 18 -36 40
-70 22 -34 40 -67 40 -72 0 -6 6 -18 14 -26 7 -9 26 -45 42 -81 15 -36 31 -67
35 -70 4 -3 15 -29 25 -57 10 -29 22 -53 27 -53 4 0 5 -5 1 -12 -4 -7 -3 -8 4
-4 11 6 17 -13 13 -37 -1 -5 7 -34 18 -65 25 -71 93 -355 117 -482 16 -88 16
-206 11 -1697 l-7 -1603 36 0 35 0 -6 1537 c-3 930 -10 1578 -16 1638 -15 152
-29 231 -56 330 -13 50 -28 104 -33 120 -18 67 -74 224 -102 285 -36 82 -121
253 -129 260 -3 3 -13 21 -23 40 -41 81 -125 198 -126 174z"/>
<path d="M1405 4249 c-4 -6 -5 -12 -2 -15 2 -3 7 2 10 11 7 17 1 20 -8 4z"/>
<path d="M1575 3859 c-4 -6 -5 -12 -2 -15 2 -3 7 2 10 11 7 17 1 20 -8 4z"/>
<path d="M1550 3811 c0 -6 4 -13 10 -16 6 -3 7 1 4 9 -7 18 -14 21 -14 7z"/>
<path d="M2165 3699 c-4 -6 -5 -12 -2 -15 2 -3 7 2 10 11 7 17 1 20 -8 4z"/>
<path d="M2136 3633 c-6 -14 -5 -15 5 -6 7 7 10 15 7 18 -3 3 -9 -2 -12 -12z"/>
<path d="M870 1936 c0 -2 8 -10 18 -17 15 -13 16 -12 3 4 -13 16 -21 21 -21
13z"/>
</g>
</svg>
